HIERARCHY
ROOT joint_Root
{
	OFFSET 0.0 0.0 0.0
	CHANNELS 6 Xposition Yposition Zposition Zrotation Xrotation Yrotation 
	JOINT Hips
	{
		OFFSET -0.726466 93.3139 -2.00062
		CHANNELS 6 Xposition Yposition Zposition Zrotation Xrotation Yrotation 
		JOINT Spine
		{
			OFFSET 15.7357 0.0 0.0
			CHANNELS 6 Xposition Yposition Zposition Zrotation Xrotation Yrotation 
			JOINT Chest
			{
				OFFSET 8.98455 -0.406207 0.0
				CHANNELS 6 Xposition Yposition Zposition Zrotation Xrotation Yrotation 
				JOINT Neck
				{
					OFFSET 16.3773 0.0 0.0
					CHANNELS 6 Xposition Yposition Zposition Zrotation Xrotation Yrotation 
					JOINT Head
					{
						OFFSET 6.45672 0.0 0.0
						CHANNELS 6 Xposition Yposition Zposition Zrotation Xrotation Yrotation 
						End Site
						{
							OFFSET 0.0 0.0 0.0
						}
					}
				}
				JOINT Shoulder_L
				{
					OFFSET 12.9942 -0.242716 4.98039
					CHANNELS 6 Xposition Yposition Zposition Zrotation Xrotation Yrotation 
					JOINT UpperArm_L
					{
						OFFSET 5.34809 0.0 0.0
						CHANNELS 6 Xposition Yposition Zposition Zrotation Xrotation Yrotation 
						JOINT LowerArm_L
						{
							OFFSET 24.3286 1.87007e-05 0.0
							CHANNELS 6 Xposition Yposition Zposition Zrotation Xrotation Yrotation 
							JOINT Hand_L
							{
								OFFSET 22.2916 0.0 0.0
								CHANNELS 6 Xposition Yposition Zposition Zrotation Xrotation Yrotation 
								End Site
								{
									OFFSET 0.0 0.0 0.0
								}
							}
						}
					}
				}
				JOINT Shoulder_R
				{
					OFFSET 12.9945 -0.242716 -4.98039
					CHANNELS 6 Xposition Yposition Zposition Zrotation Xrotation Yrotation 
					JOINT UpperArm_R
					{
						OFFSET -5.34813 0.0 0.0
						CHANNELS 6 Xposition Yposition Zposition Zrotation Xrotation Yrotation 
						JOINT LowerArm_R
						{
							OFFSET -24.3289 0.000322201 0.0
							CHANNELS 6 Xposition Yposition Zposition Zrotation Xrotation Yrotation 
							JOINT Hand_R
							{
								OFFSET -22.2915 -0.000108084 0.0
								CHANNELS 6 Xposition Yposition Zposition Zrotation Xrotation Yrotation 
								End Site
								{
									OFFSET 0.0 0.0 0.0
								}
							}
						}
					}
				}
			}
		}
		JOINT UpperLeg_L
		{
			OFFSET -2.19248 -6.46944 0.0
			CHANNELS 6 Xposition Yposition Zposition Zrotation Xrotation Yrotation 
			JOINT LowerLeg_L
			{
				OFFSET 39.0811 0.0 -1.23785e-05
				CHANNELS 6 Xposition Yposition Zposition Zrotation Xrotation Yrotation 
				JOINT Foot_L
				{
					OFFSET 40.9854 0.0 -1.26872e-05
					CHANNELS 6 Xposition Yposition Zposition Zrotation Xrotation Yrotation 
					JOINT Toes_L
					{
						OFFSET 11.7543 0.0 0.0
						CHANNELS 6 Xposition Yposition Zposition Zrotation Xrotation Yrotation 
						End Site
						{
							OFFSET 0.0 0.0 0.0
						}
					}
				}
			}
		}
		JOINT UpperLeg_R
		{
			OFFSET -2.19251 6.46944 0.0
			CHANNELS 6 Xposition Yposition Zposition Zrotation Xrotation Yrotation 
			JOINT LowerLeg_R
			{
				OFFSET -39.0811 -0.00228153 -0.0401928
				CHANNELS 6 Xposition Yposition Zposition Zrotation Xrotation Yrotation 
				JOINT Foot_R
				{
					OFFSET -40.9854 0.0 0.0
					CHANNELS 6 Xposition Yposition Zposition Zrotation Xrotation Yrotation 
					JOINT Toes_R
					{
						OFFSET -11.7543 0.0 0.0
						CHANNELS 6 Xposition Yposition Zposition Zrotation Xrotation Yrotation 
						End Site
						{
							OFFSET 0.0 0.0 0.0
						}
					}
				}
			}
		}
	}
}
MOTION
Frames:	7
Frame Time:	0.0333333
0.000000 0.000000 0.000000 0.000000 0.000000 -0.000000 -1.033840 92.081200 -2.108100 87.818500 -1.050890 5.140440 15.735700 0.000005 -0.000001 85.038900 83.204300 -84.590800 8.984550 -0.406207 -0.000000 5.780250 -1.180170 0.954881 16.377300 -0.000001 -0.000001 2.428650 -1.215470 0.946195 6.456720 -0.000001 -0.000000 2.009150 -0.157116 -0.281748 12.994200 -0.242716 4.980390 -90.019900 0.069524 -74.008100 5.348090 -0.000007 -0.000001 -65.594600 38.469000 -19.112500 24.328600 0.000019 0.000005 2.992740 6.394880 -25.144200 22.291600 -0.000001 0.000005 7.386880 5.621180 -12.699600 12.994500 -0.242716 -4.980390 88.221700 6.493310 -74.647800 -5.348130 -0.000001 -0.000004 -63.198900 38.967000 -20.389500 -24.328900 0.000322 -0.000009 -2.098980 -4.897560 -23.222900 -22.291500 -0.000108 -0.000004 9.900400 5.577820 -10.095000 -2.192480 -6.469440 -0.000000 -169.674000 -19.950200 -3.206870 39.081100 -0.000007 -0.000012 -0.134083 0.303404 23.842100 40.985400 -0.000006 -0.000013 -4.947270 0.476862 -63.337600 11.754300 -0.000000 0.000003 -0.000179 -0.001689 -16.641500 -2.192510 6.469440 -0.000001 174.547000 23.897300 179.185000 -39.081100 -0.002282 -0.040193 0.032787 -0.074324 21.627500 -40.985400 0.000008 0.000006 0.035832 3.858040 -63.604500 -11.754300 -0.000006 -0.000006 -0.003578 -0.046977 -18.483800
0.000000 0.000000 0.000000 0.000000 0.000000 -0.000000 -1.020210 92.101300 -2.117790 87.841500 -1.124430 5.096800 15.735700 0.000005 -0.000001 85.091000 83.197600 -84.648600 8.984550 -0.406207 -0.000000 5.794390 -1.168870 0.942874 16.377300 -0.000001 -0.000001 2.135460 -1.192920 0.976765 6.456720 -0.000001 -0.000000 1.857140 -0.105280 -0.284726 12.994200 -0.242716 4.980390 -89.998600 -0.005000 -73.773000 5.348090 -0.000007 -0.000001 -66.079300 36.021000 -18.542500 24.328600 0.000019 0.000005 3.815900 7.796840 -26.181000 22.291600 -0.000001 0.000005 8.096420 5.629210 -13.277300 12.994500 -0.242716 -4.980390 88.247500 6.316110 -74.458100 -5.348130 -0.000001 -0.000004 -63.113800 37.254200 -20.446300 -24.328900 0.000322 -0.000009 -1.796450 -4.147550 -23.432300 -22.291500 -0.000108 -0.000004 10.127800 5.584370 -10.448700 -2.192480 -6.469440 -0.000000 -169.718000 -19.986500 -3.167060 39.081100 -0.000007 -0.000012 -0.131647 0.300001 23.692900 40.985400 -0.000006 -0.000013 -4.950790 0.420677 -63.269800 11.754300 -0.000000 0.000003 -0.000145 -0.001415 -16.631400 -2.192510 6.469440 -0.000001 174.553000 23.833000 179.122000 -39.081100 -0.002282 -0.040193 0.033176 -0.075436 21.593900 -40.985400 0.000008 0.000006 0.095487 3.871060 -63.506600 -11.754300 -0.000006 -0.000006 -0.003713 -0.048417 -18.542500
0.000000 0.000000 0.000000 0.000000 0.000000 -0.000000 -1.016440 92.114200 -2.181350 87.846800 -1.161310 4.969680 15.735700 0.000005 -0.000001 85.093200 83.258100 -84.654000 8.984550 -0.406207 -0.000000 5.673750 -1.158530 0.934789 16.377300 -0.000001 -0.000001 2.033210 -1.161980 0.980329 6.456720 -0.000001 -0.000000 1.518120 -0.124562 -0.279149 12.994200 -0.242716 4.980390 -89.979000 -0.070740 -73.420100 5.348090 -0.000007 -0.000001 -65.860000 32.041200 -18.349400 24.328600 0.000019 0.000005 3.838860 7.583950 -26.949600 22.291600 -0.000001 0.000005 8.761750 5.631050 -13.415400 12.994500 -0.242716 -4.980390 88.281300 6.039910 -74.083200 -5.348130 -0.000001 -0.000004 -62.282400 34.616000 -21.097600 -24.328900 0.000322 -0.000009 -0.633858 -1.471170 -23.275200 -22.291500 -0.000108 -0.000004 11.081400 5.588070 -10.652600 -2.192480 -6.469440 -0.000000 -169.788000 -20.012900 -3.316400 39.081100 -0.000007 -0.000012 -0.130853 0.299100 23.629000 40.985400 -0.000006 -0.000013 -4.941720 0.373896 -63.194700 11.754300 -0.000000 0.000003 -0.000175 -0.001654 -16.640200 -2.192510 6.469440 -0.000001 174.632000 23.810600 178.930000 -39.081100 -0.002282 -0.040193 0.033465 -0.076262 21.569000 -40.985400 0.000008 0.000006 0.086721 3.857790 -63.414300 -11.754300 -0.000006 -0.000006 -0.003525 -0.046401 -18.460400
0.000000 0.000000 0.000000 0.000000 0.000000 -0.000000 -1.005360 92.133400 -2.246630 87.843800 -1.169960 4.810740 15.735700 0.000005 -0.000001 84.849800 83.396900 -84.424700 8.984550 -0.406207 -0.000000 5.392420 -1.191610 0.905279 16.377300 -0.000001 -0.000001 2.045430 -1.129910 1.043670 6.456720 -0.000001 -0.000000 1.296230 -0.123698 -0.335925 12.994200 -0.242716 4.980390 -89.945800 -0.178618 -73.114700 5.348090 -0.000007 -0.000001 -64.104800 26.950700 -19.132600 24.328600 0.000019 0.000005 3.941850 7.750760 -27.064000 22.291600 -0.000001 0.000005 9.289160 5.628500 -13.225500 12.994500 -0.242716 -4.980390 88.367700 5.626080 -73.791900 -5.348130 -0.000001 -0.000004 -60.159800 31.247000 -22.622800 -24.328900 0.000322 -0.000009 -0.115806 -0.278414 -22.393000 -22.291500 -0.000108 -0.000004 12.634500 5.588000 -10.650200 -2.192480 -6.469440 -0.000000 -169.873000 -20.002500 -3.478490 39.081100 -0.000007 -0.000012 -0.128314 0.294686 23.529700 40.985400 -0.000006 -0.000013 -4.927480 0.330461 -63.113900 11.754300 -0.000000 0.000003 -0.000167 -0.001588 -16.637700 -2.192510 6.469440 -0.000001 174.703000 23.908700 178.744000 -39.081100 -0.002282 -0.040193 0.033218 -0.075943 21.489700 -40.985400 0.000008 0.000006 0.073727 3.946890 -63.285000 -11.754300 -0.000006 -0.000006 -0.003864 -0.050021 -18.607800
0.000000 0.000000 0.000000 0.000000 0.000000 -0.000000 -1.020070 92.143400 -2.335630 87.838500 -1.202950 4.791840 15.735700 0.000005 -0.000001 84.878300 83.533200 -84.481800 8.984550 -0.406207 -0.000000 5.120950 -1.161340 0.844207 16.377300 -0.000001 -0.000001 2.105170 -1.097790 1.063240 6.456720 -0.000001 -0.000000 1.095270 -0.179804 -0.263361 12.994200 -0.242716 4.980390 -89.829200 -0.558089 -72.983400 5.348090 -0.000007 -0.000001 -61.123300 20.769400 -21.018900 24.328600 0.000019 0.000005 3.950480 8.024590 -26.321100 22.291600 -0.000001 0.000005 9.420050 5.624820 -12.957600 12.994500 -0.242716 -4.980390 88.491200 5.139510 -73.614800 -5.348130 -0.000001 -0.000004 -57.244300 25.912800 -24.674000 -24.328900 0.000322 -0.000009 0.339477 0.879329 -21.173400 -22.291500 -0.000108 -0.000004 13.878900 5.581530 -10.295200 -2.192480 -6.469440 -0.000000 -169.890000 -20.042800 -3.547760 39.081100 -0.000007 -0.000012 -0.126895 0.291893 23.496200 40.985400 -0.000006 -0.000013 -4.911850 0.310833 -63.031600 11.754300 -0.000000 0.000003 -0.000161 -0.001545 -16.636200 -2.192510 6.469440 -0.000001 174.755000 23.907000 178.667000 -39.081100 -0.002282 -0.040193 0.032339 -0.073876 21.445900 -40.985400 0.000008 0.000006 0.044092 3.956770 -63.200000 -11.754300 -0.000006 -0.000006 -0.003544 -0.046613 -18.469000
0.000000 0.000000 0.000000 0.000000 0.000000 -0.000000 -1.027220 92.150300 -2.419470 87.823600 -1.150850 4.747610 15.735700 0.000005 -0.000001 84.519800 83.694800 -84.136100 8.984550 -0.406207 -0.000000 4.791660 -1.211990 0.817114 16.377300 -0.000001 -0.000001 1.968990 -1.004200 1.020970 6.456720 -0.000001 -0.000000 0.868451 -0.166785 -0.170943 12.994200 -0.242716 4.980390 -89.638600 -1.170400 -72.837800 5.348090 -0.000007 -0.000001 -57.897400 13.055600 -23.146900 24.328600 0.000019 0.000005 4.108570 8.411270 -26.153700 22.291600 -0.000001 0.000005 9.943350 5.621570 -12.728300 12.994500 -0.242716 -4.980390 88.658300 4.515200 -73.431800 -5.348130 -0.000001 -0.000004 -53.546600 19.060100 -27.316400 -24.328900 0.000322 -0.000009 0.822183 2.216630 -20.380900 -22.291500 -0.000108 -0.000004 14.519600 5.562070 -9.289800 -2.192480 -6.469440 -0.000000 -169.919000 -19.992300 -3.673620 39.081100 -0.000007 -0.000012 -0.123875 0.285016 23.491000 40.985400 -0.000006 -0.000013 -4.899120 0.288576 -62.963800 11.754300 -0.000000 0.000003 -0.000147 -0.001426 -16.631800 -2.192510 6.469440 -0.000001 174.842000 23.827800 178.569000 -39.081100 -0.002282 -0.040193 0.032966 -0.075587 21.416500 -40.985400 0.000008 0.000006 0.088894 3.826340 -63.159900 -11.754300 -0.000006 -0.000006 -0.003440 -0.045486 -18.423100
0.000000 0.000000 0.000000 0.000000 0.000000 -0.000000 -1.040400 92.168400 -2.508160 87.792200 -1.068200 4.657050 15.735700 0.000005 -0.000001 83.975000 83.885900 -83.593800 8.984550 -0.406207 -0.000000 4.399920 -1.292540 0.811239 16.377300 -0.000001 -0.000001 1.708910 -0.874643 0.977516 6.456720 -0.000001 -0.000000 0.466029 -0.113835 0.012072 12.994200 -0.242716 4.980390 -89.376900 -1.984410 -72.563300 5.348090 -0.000007 -0.000001 -54.618600 4.496240 -25.540500 24.328600 0.000019 0.000005 4.149820 8.203770 -26.951800 22.291600 -0.000001 0.000005 10.923400 5.624170 -12.910800 12.994500 -0.242716 -4.980390 88.833000 3.854650 -73.141500 -5.348130 -0.000001 -0.000004 -49.033800 11.376700 -30.477300 -24.328900 0.000322 -0.000009 1.287760 3.455220 -20.470000 -22.291500 -0.000108 -0.000004 14.971800 5.546160 -8.526080 -2.192480 -6.469440 -0.000000 -169.944000 -19.906300 -3.821550 39.081100 -0.000007 -0.000012 -0.123824 0.285988 23.411300 40.985400 -0.000006 -0.000013 -4.887730 0.293257 -62.853200 11.754300 -0.000000 0.000003 -0.000156 -0.001500 -16.634500 -2.192510 6.469440 -0.000001 174.968000 23.791700 178.440000 -39.081100 -0.002282 -0.040193 0.033305 -0.076754 21.339800 -40.985400 0.000008 0.000006 0.091000 3.664670 -63.038400 -11.754300 -0.000006 -0.000006 -0.003564 -0.046828 -18.477800
